<mxfile host="Electron" modified="2023-05-28T16:48:43.123Z" agent="Mozilla/5.0 (Windows NT 10.0; Win64; x64) AppleWebKit/537.36 (KHTML, like Gecko) draw.io/21.2.8 Chrome/112.0.5615.165 Electron/24.2.0 Safari/537.36" etag="EG19YiG-VeoTdNzzdaZN" version="21.2.8" type="device">
  <diagram name="Page-1" id="2liXeJQxVJbMvjs7x5kk">
    <mxGraphModel dx="5854" dy="2484" grid="1" gridSize="10" guides="1" tooltips="1" connect="1" arrows="1" fold="1" page="1" pageScale="1" pageWidth="827" pageHeight="1169" math="0" shadow="0">
      <root>
        <mxCell id="0" />
        <mxCell id="1" parent="0" />
        <mxCell id="qB92lxY-eykZboWmVr6d-211" style="edgeStyle=orthogonalEdgeStyle;rounded=0;orthogonalLoop=1;jettySize=auto;html=1;exitX=0;exitY=0;exitDx=1290;exitDy=217.5;exitPerimeter=0;" edge="1" parent="1" source="qB92lxY-eykZboWmVr6d-210" target="qB92lxY-eykZboWmVr6d-205">
          <mxGeometry relative="1" as="geometry" />
        </mxCell>
        <mxCell id="qB92lxY-eykZboWmVr6d-212" style="edgeStyle=orthogonalEdgeStyle;rounded=0;orthogonalLoop=1;jettySize=auto;html=1;exitX=0;exitY=0;exitDx=1290;exitDy=592.5;exitPerimeter=0;entryX=0.011;entryY=0.148;entryDx=0;entryDy=0;entryPerimeter=0;" edge="1" parent="1" source="qB92lxY-eykZboWmVr6d-210" target="qB92lxY-eykZboWmVr6d-207">
          <mxGeometry relative="1" as="geometry" />
        </mxCell>
        <mxCell id="qB92lxY-eykZboWmVr6d-213" style="edgeStyle=orthogonalEdgeStyle;rounded=0;orthogonalLoop=1;jettySize=auto;html=1;exitX=0;exitY=0;exitDx=0;exitDy=592.5;exitPerimeter=0;entryX=0;entryY=0;entryDx=370;entryDy=156.25;entryPerimeter=0;" edge="1" parent="1" source="qB92lxY-eykZboWmVr6d-210" target="qB92lxY-eykZboWmVr6d-149">
          <mxGeometry relative="1" as="geometry" />
        </mxCell>
        <mxCell id="qB92lxY-eykZboWmVr6d-210" value="" style="shape=folder;fontStyle=1;spacingTop=10;tabWidth=0;tabHeight=30;tabPosition=left;html=1;whiteSpace=wrap;" vertex="1" parent="1">
          <mxGeometry x="-950" y="280" width="1290" height="780" as="geometry" />
        </mxCell>
        <mxCell id="qB92lxY-eykZboWmVr6d-148" style="edgeStyle=orthogonalEdgeStyle;rounded=0;orthogonalLoop=1;jettySize=auto;html=1;exitX=0.001;exitY=0.738;exitDx=0;exitDy=0;exitPerimeter=0;entryX=1;entryY=0.383;entryDx=0;entryDy=0;entryPerimeter=0;" edge="1" parent="1" source="qB92lxY-eykZboWmVr6d-210" target="qB92lxY-eykZboWmVr6d-119">
          <mxGeometry relative="1" as="geometry">
            <mxPoint x="-950" y="857.5" as="sourcePoint" />
            <Array as="points">
              <mxPoint x="-985" y="856" />
            </Array>
          </mxGeometry>
        </mxCell>
        <mxCell id="qB92lxY-eykZboWmVr6d-1" value="«interface»&lt;br&gt;&lt;b&gt;Observer&lt;/b&gt;" style="html=1;whiteSpace=wrap;" vertex="1" parent="1">
          <mxGeometry x="465" y="870" width="110" height="50" as="geometry" />
        </mxCell>
        <mxCell id="qB92lxY-eykZboWmVr6d-23" value="«abstract»&lt;br&gt;&lt;b&gt;Observable&lt;/b&gt;" style="html=1;whiteSpace=wrap;" vertex="1" parent="1">
          <mxGeometry x="465" y="930" width="110" height="50" as="geometry" />
        </mxCell>
        <mxCell id="qB92lxY-eykZboWmVr6d-50" style="edgeStyle=orthogonalEdgeStyle;rounded=0;orthogonalLoop=1;jettySize=auto;html=1;entryX=0.5;entryY=1;entryDx=0;entryDy=0;" edge="1" parent="1" source="qB92lxY-eykZboWmVr6d-26" target="qB92lxY-eykZboWmVr6d-35">
          <mxGeometry relative="1" as="geometry">
            <Array as="points">
              <mxPoint x="-325" y="630" />
              <mxPoint x="-735" y="630" />
            </Array>
          </mxGeometry>
        </mxCell>
        <mxCell id="qB92lxY-eykZboWmVr6d-26" value="Add Document Controller" style="html=1;whiteSpace=wrap;fontStyle=1" vertex="1" parent="1">
          <mxGeometry x="-380" y="560" width="110" height="50" as="geometry" />
        </mxCell>
        <mxCell id="qB92lxY-eykZboWmVr6d-48" style="edgeStyle=orthogonalEdgeStyle;rounded=0;orthogonalLoop=1;jettySize=auto;html=1;exitX=0;exitY=0.5;exitDx=0;exitDy=0;fontStyle=1" edge="1" parent="1" source="qB92lxY-eykZboWmVr6d-27" target="qB92lxY-eykZboWmVr6d-34">
          <mxGeometry relative="1" as="geometry" />
        </mxCell>
        <mxCell id="qB92lxY-eykZboWmVr6d-49" style="edgeStyle=orthogonalEdgeStyle;rounded=0;orthogonalLoop=1;jettySize=auto;html=1;exitX=0.25;exitY=0;exitDx=0;exitDy=0;entryX=0.5;entryY=1;entryDx=0;entryDy=0;" edge="1" parent="1" source="qB92lxY-eykZboWmVr6d-27" target="qB92lxY-eykZboWmVr6d-44">
          <mxGeometry relative="1" as="geometry" />
        </mxCell>
        <mxCell id="qB92lxY-eykZboWmVr6d-27" value="Add User Controller" style="html=1;whiteSpace=wrap;fontStyle=1" vertex="1" parent="1">
          <mxGeometry x="-500" y="560" width="110" height="50" as="geometry" />
        </mxCell>
        <mxCell id="qB92lxY-eykZboWmVr6d-29" value="«abstract»&lt;br&gt;&lt;b&gt;Add Controller&lt;/b&gt;" style="html=1;whiteSpace=wrap;" vertex="1" parent="1">
          <mxGeometry x="-440" y="470" width="110" height="50" as="geometry" />
        </mxCell>
        <mxCell id="qB92lxY-eykZboWmVr6d-33" value="«abstract»&lt;br&gt;&lt;b&gt;View Controller&lt;/b&gt;" style="html=1;whiteSpace=wrap;" vertex="1" parent="1">
          <mxGeometry x="-790" y="650" width="110" height="50" as="geometry" />
        </mxCell>
        <mxCell id="qB92lxY-eykZboWmVr6d-52" style="edgeStyle=orthogonalEdgeStyle;rounded=0;orthogonalLoop=1;jettySize=auto;html=1;exitX=0.5;exitY=0;exitDx=0;exitDy=0;entryX=0.5;entryY=1;entryDx=0;entryDy=0;" edge="1" parent="1" source="qB92lxY-eykZboWmVr6d-34" target="qB92lxY-eykZboWmVr6d-44">
          <mxGeometry relative="1" as="geometry" />
        </mxCell>
        <mxCell id="qB92lxY-eykZboWmVr6d-60" style="edgeStyle=orthogonalEdgeStyle;rounded=0;orthogonalLoop=1;jettySize=auto;html=1;exitX=1;exitY=0.5;exitDx=0;exitDy=0;entryX=0;entryY=0.5;entryDx=0;entryDy=0;fontStyle=1" edge="1" parent="1" source="qB92lxY-eykZboWmVr6d-34" target="qB92lxY-eykZboWmVr6d-27">
          <mxGeometry relative="1" as="geometry" />
        </mxCell>
        <mxCell id="qB92lxY-eykZboWmVr6d-34" value="User Controller" style="html=1;whiteSpace=wrap;fontStyle=1" vertex="1" parent="1">
          <mxGeometry x="-670" y="560" width="110" height="50" as="geometry" />
        </mxCell>
        <mxCell id="qB92lxY-eykZboWmVr6d-53" style="edgeStyle=orthogonalEdgeStyle;rounded=0;orthogonalLoop=1;jettySize=auto;html=1;exitX=0.5;exitY=1;exitDx=0;exitDy=0;entryX=0.5;entryY=1;entryDx=0;entryDy=0;" edge="1" parent="1" source="qB92lxY-eykZboWmVr6d-35" target="qB92lxY-eykZboWmVr6d-26">
          <mxGeometry relative="1" as="geometry" />
        </mxCell>
        <mxCell id="qB92lxY-eykZboWmVr6d-57" style="edgeStyle=orthogonalEdgeStyle;rounded=0;orthogonalLoop=1;jettySize=auto;html=1;exitX=0.5;exitY=0;exitDx=0;exitDy=0;entryX=0.5;entryY=1;entryDx=0;entryDy=0;" edge="1" parent="1" source="qB92lxY-eykZboWmVr6d-35" target="qB92lxY-eykZboWmVr6d-44">
          <mxGeometry relative="1" as="geometry" />
        </mxCell>
        <mxCell id="qB92lxY-eykZboWmVr6d-35" value="Document Controller" style="html=1;whiteSpace=wrap;fontStyle=1" vertex="1" parent="1">
          <mxGeometry x="-790" y="560" width="110" height="50" as="geometry" />
        </mxCell>
        <mxCell id="qB92lxY-eykZboWmVr6d-59" style="edgeStyle=orthogonalEdgeStyle;rounded=0;orthogonalLoop=1;jettySize=auto;html=1;exitX=0.5;exitY=0;exitDx=0;exitDy=0;entryX=0.5;entryY=1;entryDx=0;entryDy=0;" edge="1" parent="1" source="qB92lxY-eykZboWmVr6d-36" target="qB92lxY-eykZboWmVr6d-44">
          <mxGeometry relative="1" as="geometry" />
        </mxCell>
        <mxCell id="qB92lxY-eykZboWmVr6d-36" value="Customer Info Controller" style="html=1;whiteSpace=wrap;fontStyle=1" vertex="1" parent="1">
          <mxGeometry x="-910" y="560" width="110" height="50" as="geometry" />
        </mxCell>
        <mxCell id="qB92lxY-eykZboWmVr6d-47" style="edgeStyle=orthogonalEdgeStyle;rounded=0;orthogonalLoop=1;jettySize=auto;html=1;exitX=1;exitY=0.5;exitDx=0;exitDy=0;entryX=0.75;entryY=0;entryDx=0;entryDy=0;" edge="1" parent="1" source="qB92lxY-eykZboWmVr6d-42" target="qB92lxY-eykZboWmVr6d-26">
          <mxGeometry relative="1" as="geometry" />
        </mxCell>
        <mxCell id="qB92lxY-eykZboWmVr6d-42" value="Canvas Controller" style="html=1;whiteSpace=wrap;fontStyle=1" vertex="1" parent="1">
          <mxGeometry x="-490" y="410" width="110" height="50" as="geometry" />
        </mxCell>
        <mxCell id="qB92lxY-eykZboWmVr6d-43" value="Splash Controller" style="html=1;whiteSpace=wrap;fontStyle=1" vertex="1" parent="1">
          <mxGeometry x="-490" y="340" width="110" height="50" as="geometry" />
        </mxCell>
        <mxCell id="qB92lxY-eykZboWmVr6d-44" value="Menu Controller" style="html=1;whiteSpace=wrap;fontStyle=1" vertex="1" parent="1">
          <mxGeometry x="-670" y="410" width="110" height="50" as="geometry" />
        </mxCell>
        <mxCell id="qB92lxY-eykZboWmVr6d-46" style="edgeStyle=orthogonalEdgeStyle;rounded=0;orthogonalLoop=1;jettySize=auto;html=1;exitX=0.5;exitY=1;exitDx=0;exitDy=0;entryX=0.5;entryY=0;entryDx=0;entryDy=0;fontStyle=1" edge="1" parent="1" source="qB92lxY-eykZboWmVr6d-45" target="qB92lxY-eykZboWmVr6d-44">
          <mxGeometry relative="1" as="geometry" />
        </mxCell>
        <mxCell id="qB92lxY-eykZboWmVr6d-45" value="Login View Controller" style="html=1;whiteSpace=wrap;fontStyle=1" vertex="1" parent="1">
          <mxGeometry x="-670" y="340" width="110" height="50" as="geometry" />
        </mxCell>
        <mxCell id="qB92lxY-eykZboWmVr6d-220" style="edgeStyle=orthogonalEdgeStyle;rounded=0;orthogonalLoop=1;jettySize=auto;html=1;entryX=0.254;entryY=-0.001;entryDx=0;entryDy=0;entryPerimeter=0;" edge="1" parent="1" source="qB92lxY-eykZboWmVr6d-61" target="qB92lxY-eykZboWmVr6d-73">
          <mxGeometry relative="1" as="geometry" />
        </mxCell>
        <mxCell id="qB92lxY-eykZboWmVr6d-61" value="&lt;b&gt;&lt;font style=&quot;font-size: 16px;&quot;&gt;controller&lt;/font&gt;&lt;/b&gt;" style="shape=umlFrame;whiteSpace=wrap;html=1;pointerEvents=0;width=80;height=30;" vertex="1" parent="1">
          <mxGeometry x="-930" y="320" width="690" height="400" as="geometry" />
        </mxCell>
        <mxCell id="qB92lxY-eykZboWmVr6d-219" style="edgeStyle=orthogonalEdgeStyle;rounded=0;orthogonalLoop=1;jettySize=auto;html=1;entryX=1;entryY=0.414;entryDx=0;entryDy=0;entryPerimeter=0;" edge="1" parent="1" source="qB92lxY-eykZboWmVr6d-62" target="qB92lxY-eykZboWmVr6d-61">
          <mxGeometry relative="1" as="geometry" />
        </mxCell>
        <mxCell id="qB92lxY-eykZboWmVr6d-62" value="&lt;b&gt;&lt;font style=&quot;font-size: 16px;&quot;&gt;view&lt;/font&gt;&lt;/b&gt;" style="shape=umlFrame;whiteSpace=wrap;html=1;pointerEvents=0;width=80;height=30;" vertex="1" parent="1">
          <mxGeometry x="-155" y="350" width="420" height="270" as="geometry" />
        </mxCell>
        <mxCell id="qB92lxY-eykZboWmVr6d-63" value="Menu View" style="html=1;whiteSpace=wrap;fontStyle=1" vertex="1" parent="1">
          <mxGeometry x="-115" y="530" width="110" height="50" as="geometry" />
        </mxCell>
        <mxCell id="qB92lxY-eykZboWmVr6d-64" value="Splash" style="html=1;whiteSpace=wrap;fontStyle=1" vertex="1" parent="1">
          <mxGeometry x="5" y="530" width="110" height="50" as="geometry" />
        </mxCell>
        <mxCell id="qB92lxY-eykZboWmVr6d-65" value="User View" style="html=1;whiteSpace=wrap;fontStyle=1" vertex="1" parent="1">
          <mxGeometry x="125" y="530" width="110" height="50" as="geometry" />
        </mxCell>
        <mxCell id="qB92lxY-eykZboWmVr6d-66" value="Login View" style="html=1;whiteSpace=wrap;fontStyle=1" vertex="1" parent="1">
          <mxGeometry x="125" y="470" width="110" height="50" as="geometry" />
        </mxCell>
        <mxCell id="qB92lxY-eykZboWmVr6d-67" value="Document View" style="html=1;whiteSpace=wrap;fontStyle=1" vertex="1" parent="1">
          <mxGeometry x="5" y="470" width="110" height="50" as="geometry" />
        </mxCell>
        <mxCell id="qB92lxY-eykZboWmVr6d-68" value="Customer Info" style="html=1;whiteSpace=wrap;fontStyle=1" vertex="1" parent="1">
          <mxGeometry x="-115" y="470" width="110" height="50" as="geometry" />
        </mxCell>
        <mxCell id="qB92lxY-eykZboWmVr6d-69" value="Canvas View" style="html=1;whiteSpace=wrap;fontStyle=1" vertex="1" parent="1">
          <mxGeometry x="125" y="410" width="110" height="50" as="geometry" />
        </mxCell>
        <mxCell id="qB92lxY-eykZboWmVr6d-70" value="Add User View" style="html=1;whiteSpace=wrap;fontStyle=1" vertex="1" parent="1">
          <mxGeometry x="5" y="410" width="110" height="50" as="geometry" />
        </mxCell>
        <mxCell id="qB92lxY-eykZboWmVr6d-71" value="Add Document View" style="html=1;whiteSpace=wrap;fontStyle=1" vertex="1" parent="1">
          <mxGeometry x="-115" y="410" width="110" height="50" as="geometry" />
        </mxCell>
        <mxCell id="qB92lxY-eykZboWmVr6d-203" style="edgeStyle=orthogonalEdgeStyle;rounded=0;orthogonalLoop=1;jettySize=auto;html=1;entryX=0.476;entryY=0.112;entryDx=0;entryDy=0;entryPerimeter=0;" edge="1" parent="1" source="qB92lxY-eykZboWmVr6d-73" target="qB92lxY-eykZboWmVr6d-131">
          <mxGeometry relative="1" as="geometry">
            <Array as="points">
              <mxPoint x="-334" y="1040" />
              <mxPoint x="-334" y="1040" />
            </Array>
          </mxGeometry>
        </mxCell>
        <mxCell id="qB92lxY-eykZboWmVr6d-218" style="edgeStyle=orthogonalEdgeStyle;rounded=0;orthogonalLoop=1;jettySize=auto;html=1;entryX=0.454;entryY=0.996;entryDx=0;entryDy=0;entryPerimeter=0;exitX=0.89;exitY=-0.004;exitDx=0;exitDy=0;exitPerimeter=0;" edge="1" parent="1" source="qB92lxY-eykZboWmVr6d-73" target="qB92lxY-eykZboWmVr6d-62">
          <mxGeometry relative="1" as="geometry" />
        </mxCell>
        <mxCell id="qB92lxY-eykZboWmVr6d-73" value="&lt;b&gt;&lt;font style=&quot;font-size: 16px;&quot;&gt;model&lt;/font&gt;&lt;/b&gt;" style="shape=umlFrame;whiteSpace=wrap;html=1;pointerEvents=0;width=80;height=30;" vertex="1" parent="1">
          <mxGeometry x="-435" y="825" width="420" height="200" as="geometry" />
        </mxCell>
        <mxCell id="qB92lxY-eykZboWmVr6d-90" style="edgeStyle=orthogonalEdgeStyle;rounded=0;orthogonalLoop=1;jettySize=auto;html=1;exitX=0.25;exitY=0;exitDx=0;exitDy=0;strokeColor=default;dashed=1;" edge="1" parent="1" source="qB92lxY-eykZboWmVr6d-74" target="qB92lxY-eykZboWmVr6d-77">
          <mxGeometry relative="1" as="geometry">
            <Array as="points">
              <mxPoint x="-133" y="925" />
              <mxPoint x="-225" y="925" />
            </Array>
          </mxGeometry>
        </mxCell>
        <mxCell id="qB92lxY-eykZboWmVr6d-74" value="Document Model" style="html=1;whiteSpace=wrap;fontStyle=1" vertex="1" parent="1">
          <mxGeometry x="-160" y="935" width="110" height="50" as="geometry" />
        </mxCell>
        <mxCell id="qB92lxY-eykZboWmVr6d-87" style="edgeStyle=orthogonalEdgeStyle;rounded=0;orthogonalLoop=1;jettySize=auto;html=1;exitX=0.5;exitY=0;exitDx=0;exitDy=0;entryX=0.5;entryY=1;entryDx=0;entryDy=0;dashed=1;" edge="1" parent="1" source="qB92lxY-eykZboWmVr6d-75" target="qB92lxY-eykZboWmVr6d-77">
          <mxGeometry relative="1" as="geometry" />
        </mxCell>
        <mxCell id="qB92lxY-eykZboWmVr6d-75" value="User Model" style="html=1;whiteSpace=wrap;fontStyle=1" vertex="1" parent="1">
          <mxGeometry x="-280" y="935" width="110" height="50" as="geometry" />
        </mxCell>
        <mxCell id="qB92lxY-eykZboWmVr6d-89" style="edgeStyle=orthogonalEdgeStyle;rounded=0;orthogonalLoop=1;jettySize=auto;html=1;exitX=0.75;exitY=0;exitDx=0;exitDy=0;entryX=0.5;entryY=1;entryDx=0;entryDy=0;dashed=1;" edge="1" parent="1" source="qB92lxY-eykZboWmVr6d-76" target="qB92lxY-eykZboWmVr6d-77">
          <mxGeometry relative="1" as="geometry">
            <Array as="points">
              <mxPoint x="-318" y="925" />
              <mxPoint x="-225" y="925" />
            </Array>
          </mxGeometry>
        </mxCell>
        <mxCell id="qB92lxY-eykZboWmVr6d-76" value="Customer Model" style="html=1;whiteSpace=wrap;fontStyle=1" vertex="1" parent="1">
          <mxGeometry x="-400" y="935" width="110" height="50" as="geometry" />
        </mxCell>
        <mxCell id="qB92lxY-eykZboWmVr6d-77" value="«interface»&lt;br&gt;&lt;b&gt;IModel&lt;/b&gt;" style="html=1;whiteSpace=wrap;" vertex="1" parent="1">
          <mxGeometry x="-280" y="855" width="110" height="50" as="geometry" />
        </mxCell>
        <mxCell id="qB92lxY-eykZboWmVr6d-7" value="Address" style="swimlane;fontStyle=1;align=center;verticalAlign=top;childLayout=stackLayout;horizontal=1;startSize=26;horizontalStack=0;resizeParent=1;resizeParentMax=0;resizeLast=0;collapsible=1;marginBottom=0;whiteSpace=wrap;html=1;movable=1;resizable=1;rotatable=1;deletable=1;editable=1;locked=0;connectable=1;container=0;" vertex="1" parent="1">
          <mxGeometry x="420" y="1640" width="200" height="120" as="geometry" />
        </mxCell>
        <mxCell id="qB92lxY-eykZboWmVr6d-11" value="Customer" style="swimlane;fontStyle=1;align=center;verticalAlign=top;childLayout=stackLayout;horizontal=1;startSize=26;horizontalStack=0;resizeParent=1;resizeParentMax=0;resizeLast=0;collapsible=1;marginBottom=0;whiteSpace=wrap;html=1;movable=1;resizable=1;rotatable=1;deletable=1;editable=1;locked=0;connectable=1;container=0;" vertex="1" parent="1">
          <mxGeometry x="420" y="1140" width="200" height="170" as="geometry" />
        </mxCell>
        <mxCell id="qB92lxY-eykZboWmVr6d-13" value="Document" style="swimlane;fontStyle=1;align=center;verticalAlign=top;childLayout=stackLayout;horizontal=1;startSize=26;horizontalStack=0;resizeParent=1;resizeParentMax=0;resizeLast=0;collapsible=1;marginBottom=0;whiteSpace=wrap;html=1;movable=1;resizable=1;rotatable=1;deletable=1;editable=1;locked=0;connectable=1;container=0;" vertex="1" parent="1">
          <mxGeometry x="420" y="1320" width="200" height="190" as="geometry" />
        </mxCell>
        <mxCell id="qB92lxY-eykZboWmVr6d-15" value="ImageWrapper" style="swimlane;fontStyle=1;align=center;verticalAlign=top;childLayout=stackLayout;horizontal=1;startSize=26;horizontalStack=0;resizeParent=1;resizeParentMax=0;resizeLast=0;collapsible=1;marginBottom=0;whiteSpace=wrap;html=1;movable=1;resizable=1;rotatable=1;deletable=1;editable=1;locked=0;connectable=1;container=0;" vertex="1" parent="1">
          <mxGeometry x="420" y="1520" width="200" height="110" as="geometry" />
        </mxCell>
        <mxCell id="qB92lxY-eykZboWmVr6d-17" value="User" style="swimlane;fontStyle=1;align=center;verticalAlign=top;childLayout=stackLayout;horizontal=1;startSize=26;horizontalStack=0;resizeParent=1;resizeParentMax=0;resizeLast=0;collapsible=1;marginBottom=0;whiteSpace=wrap;html=1;movable=1;resizable=1;rotatable=1;deletable=1;editable=1;locked=0;connectable=1;container=0;" vertex="1" parent="1">
          <mxGeometry x="420" y="1020" width="200" height="110" as="geometry" />
        </mxCell>
        <mxCell id="qB92lxY-eykZboWmVr6d-8" value="- addressID: int&lt;br&gt;- streetName: String&lt;br&gt;- streetNumber: String&lt;br&gt;- postcode: String&lt;br&gt;- town: String&lt;br&gt;- country: String" style="text;strokeColor=none;fillColor=none;align=left;verticalAlign=top;spacingLeft=4;spacingRight=4;overflow=hidden;rotatable=1;points=[[0,0.5],[1,0.5]];portConstraint=eastwest;whiteSpace=wrap;html=1;movable=1;resizable=1;deletable=1;editable=1;locked=0;connectable=1;container=0;" vertex="1" parent="1">
          <mxGeometry x="420" y="1666" width="200" height="94" as="geometry" />
        </mxCell>
        <mxCell id="qB92lxY-eykZboWmVr6d-12" value="- customerID: UUID&lt;br&gt;- customerName: String&lt;br&gt;- customerEmail: String&lt;br&gt;- customerPhoneNumber: String&lt;br&gt;- customerAddress: Address&lt;br&gt;- customerType: CustomerType&lt;br&gt;- lastContract: Date&lt;br&gt;- contracts: &lt;br&gt;&lt;span style=&quot;white-space: pre;&quot;&gt;	&lt;/span&gt;HashMap&amp;lt;UUID, Document&amp;gt;" style="text;strokeColor=none;fillColor=none;align=left;verticalAlign=top;spacingLeft=4;spacingRight=4;overflow=hidden;rotatable=1;points=[[0,0.5],[1,0.5]];portConstraint=eastwest;whiteSpace=wrap;html=1;movable=1;resizable=1;deletable=1;editable=1;locked=0;connectable=1;container=0;" vertex="1" parent="1">
          <mxGeometry x="420" y="1166" width="200" height="144" as="geometry" />
        </mxCell>
        <mxCell id="qB92lxY-eykZboWmVr6d-14" value="- documentID: UUID&lt;br&gt;- customer: Customer&lt;br&gt;- dateOfCreation: Date&lt;br&gt;- technicians: List&amp;lt;User&amp;gt;&lt;br&gt;- documentsImages: &lt;br&gt;&lt;span style=&quot;white-space: pre;&quot;&gt;	&lt;/span&gt;List&amp;lt;ImageWrapper&amp;gt;&lt;br&gt;- jobDescription: String&lt;br&gt;- optionalNotes: String&lt;br&gt;- jobTitle: String&lt;br&gt;- isLoadingImages: &lt;br&gt;&lt;span style=&quot;white-space: pre;&quot;&gt;	&lt;/span&gt;BooleanProperty" style="text;strokeColor=none;fillColor=none;align=left;verticalAlign=top;spacingLeft=4;spacingRight=4;overflow=hidden;rotatable=1;points=[[0,0.5],[1,0.5]];portConstraint=eastwest;whiteSpace=wrap;html=1;movable=1;resizable=1;deletable=1;editable=1;locked=0;connectable=1;container=0;" vertex="1" parent="1">
          <mxGeometry x="420" y="1346" width="200" height="164" as="geometry" />
        </mxCell>
        <mxCell id="qB92lxY-eykZboWmVr6d-16" value="- url: String&lt;br&gt;- name: String&lt;br&gt;-description: String&lt;br&gt;- imageBytes: byte[]&lt;br&gt;- imagePreview: ImagePreview" style="text;strokeColor=none;fillColor=none;align=left;verticalAlign=top;spacingLeft=4;spacingRight=4;overflow=hidden;rotatable=1;points=[[0,0.5],[1,0.5]];portConstraint=eastwest;whiteSpace=wrap;html=1;movable=1;resizable=1;deletable=1;editable=1;locked=0;connectable=1;container=0;" vertex="1" parent="1">
          <mxGeometry x="420" y="1546" width="200" height="84" as="geometry" />
        </mxCell>
        <mxCell id="qB92lxY-eykZboWmVr6d-18" value="- password: byte[][]&lt;br&gt;- assignedDocuments: &lt;br&gt;&lt;span style=&quot;white-space: pre;&quot;&gt;	&lt;/span&gt;HashMap&amp;lt;UUID, Document&amp;gt;&lt;br&gt;- userRole: UserRole&lt;br&gt;- profilePicture: byte[]" style="text;strokeColor=none;fillColor=none;align=left;verticalAlign=top;spacingLeft=4;spacingRight=4;overflow=hidden;rotatable=1;points=[[0,0.5],[1,0.5]];portConstraint=eastwest;whiteSpace=wrap;html=1;movable=1;resizable=1;deletable=1;editable=1;locked=0;connectable=1;container=0;" vertex="1" parent="1">
          <mxGeometry x="420" y="1046" width="200" height="84" as="geometry" />
        </mxCell>
        <mxCell id="qB92lxY-eykZboWmVr6d-84" value="&lt;span style=&quot;&quot;&gt;&lt;font style=&quot;font-size: 18px;&quot;&gt;gui&lt;/font&gt;&lt;/span&gt;" style="text;align=center;fontStyle=1;verticalAlign=middle;spacingLeft=3;spacingRight=3;strokeColor=none;rotatable=1;points=[[0,0.5],[1,0.5]];portConstraint=eastwest;html=1;fontSize=16;movable=1;resizable=1;deletable=1;editable=1;locked=0;connectable=1;container=0;" vertex="1" parent="1">
          <mxGeometry x="-940" y="280" width="50" height="26" as="geometry" />
        </mxCell>
        <mxCell id="qB92lxY-eykZboWmVr6d-105" style="edgeStyle=orthogonalEdgeStyle;rounded=0;orthogonalLoop=1;jettySize=auto;html=1;exitX=0.75;exitY=0;exitDx=0;exitDy=0;entryX=0.145;entryY=1.005;entryDx=0;entryDy=0;entryPerimeter=0;fontStyle=1;dashed=1;" edge="1" parent="1" source="qB92lxY-eykZboWmVr6d-91" target="qB92lxY-eykZboWmVr6d-101">
          <mxGeometry relative="1" as="geometry" />
        </mxCell>
        <mxCell id="qB92lxY-eykZboWmVr6d-91" value="Password Dialog" style="html=1;whiteSpace=wrap;fontStyle=1" vertex="1" parent="1">
          <mxGeometry x="-1330" y="815" width="110" height="50" as="geometry" />
        </mxCell>
        <mxCell id="qB92lxY-eykZboWmVr6d-106" style="edgeStyle=orthogonalEdgeStyle;rounded=0;orthogonalLoop=1;jettySize=auto;html=1;exitX=0.25;exitY=0;exitDx=0;exitDy=0;entryX=0.891;entryY=1;entryDx=0;entryDy=0;entryPerimeter=0;fontStyle=1;dashed=1;" edge="1" parent="1" source="qB92lxY-eykZboWmVr6d-92" target="qB92lxY-eykZboWmVr6d-101">
          <mxGeometry relative="1" as="geometry" />
        </mxCell>
        <mxCell id="qB92lxY-eykZboWmVr6d-92" value="Text Input Dialog" style="html=1;whiteSpace=wrap;fontStyle=1" vertex="1" parent="1">
          <mxGeometry x="-1190" y="815" width="110" height="50" as="geometry" />
        </mxCell>
        <mxCell id="qB92lxY-eykZboWmVr6d-107" style="edgeStyle=orthogonalEdgeStyle;rounded=0;orthogonalLoop=1;jettySize=auto;html=1;exitX=0.25;exitY=1;exitDx=0;exitDy=0;entryX=0.864;entryY=0.005;entryDx=0;entryDy=0;entryPerimeter=0;dashed=1;" edge="1" parent="1" source="qB92lxY-eykZboWmVr6d-93" target="qB92lxY-eykZboWmVr6d-101">
          <mxGeometry relative="1" as="geometry" />
        </mxCell>
        <mxCell id="qB92lxY-eykZboWmVr6d-93" value="Loading Dialog" style="html=1;whiteSpace=wrap;fontStyle=1" vertex="1" parent="1">
          <mxGeometry x="-1190" y="665" width="110" height="50" as="geometry" />
        </mxCell>
        <mxCell id="qB92lxY-eykZboWmVr6d-103" style="edgeStyle=orthogonalEdgeStyle;rounded=0;orthogonalLoop=1;jettySize=auto;html=1;exitX=0.75;exitY=1;exitDx=0;exitDy=0;entryX=0.136;entryY=0.045;entryDx=0;entryDy=0;entryPerimeter=0;dashed=1;" edge="1" parent="1" source="qB92lxY-eykZboWmVr6d-95" target="qB92lxY-eykZboWmVr6d-101">
          <mxGeometry relative="1" as="geometry" />
        </mxCell>
        <mxCell id="qB92lxY-eykZboWmVr6d-95" value="Choice Dialog" style="html=1;whiteSpace=wrap;fontStyle=1" vertex="1" parent="1">
          <mxGeometry x="-1330" y="665" width="110" height="50" as="geometry" />
        </mxCell>
        <mxCell id="qB92lxY-eykZboWmVr6d-96" value="&lt;b&gt;&lt;font style=&quot;font-size: 16px;&quot;&gt;dialogs&lt;/font&gt;&lt;/b&gt;" style="shape=umlFrame;whiteSpace=wrap;html=1;pointerEvents=0;width=80;height=30;" vertex="1" parent="1">
          <mxGeometry x="-1350" y="615" width="290" height="270" as="geometry" />
        </mxCell>
        <mxCell id="qB92lxY-eykZboWmVr6d-101" value="«abstract»&lt;br&gt;&lt;b&gt;Custom Dialog&lt;/b&gt;" style="html=1;whiteSpace=wrap;" vertex="1" parent="1">
          <mxGeometry x="-1260" y="745" width="110" height="50" as="geometry" />
        </mxCell>
        <mxCell id="qB92lxY-eykZboWmVr6d-108" value="&lt;b&gt;&lt;font style=&quot;font-size: 16px;&quot;&gt;text Controls&lt;/font&gt;&lt;/b&gt;" style="shape=umlFrame;whiteSpace=wrap;html=1;pointerEvents=0;width=130;height=20;" vertex="1" parent="1">
          <mxGeometry x="-1350" y="905" width="290" height="110" as="geometry" />
        </mxCell>
        <mxCell id="qB92lxY-eykZboWmVr6d-109" value="Text Area With Floating Text" style="html=1;whiteSpace=wrap;fontStyle=1" vertex="1" parent="1">
          <mxGeometry x="-1190" y="945" width="110" height="50" as="geometry" />
        </mxCell>
        <mxCell id="qB92lxY-eykZboWmVr6d-110" value="MFX Text Field With Autofill" style="html=1;whiteSpace=wrap;fontStyle=1" vertex="1" parent="1">
          <mxGeometry x="-1330" y="945" width="110" height="50" as="geometry" />
        </mxCell>
        <mxCell id="qB92lxY-eykZboWmVr6d-111" value="Image Preview Observable" style="html=1;whiteSpace=wrap;fontStyle=1" vertex="1" parent="1">
          <mxGeometry x="-1330" y="1165" width="110" height="50" as="geometry" />
        </mxCell>
        <mxCell id="qB92lxY-eykZboWmVr6d-112" value="Notification Bubble" style="html=1;whiteSpace=wrap;fontStyle=1" vertex="1" parent="1">
          <mxGeometry x="-1330" y="1234" width="110" height="50" as="geometry" />
        </mxCell>
        <mxCell id="qB92lxY-eykZboWmVr6d-113" value="User Card" style="html=1;whiteSpace=wrap;fontStyle=1" vertex="1" parent="1">
          <mxGeometry x="-1190" y="1234" width="110" height="50" as="geometry" />
        </mxCell>
        <mxCell id="qB92lxY-eykZboWmVr6d-114" value="Image View Pane" style="html=1;whiteSpace=wrap;fontStyle=1" vertex="1" parent="1">
          <mxGeometry x="-1190" y="1165" width="110" height="50" as="geometry" />
        </mxCell>
        <mxCell id="qB92lxY-eykZboWmVr6d-115" value="Document Property Checkbox Wrapper" style="html=1;whiteSpace=wrap;fontStyle=1" vertex="1" parent="1">
          <mxGeometry x="-1190" y="1095" width="110" height="50" as="geometry" />
        </mxCell>
        <mxCell id="qB92lxY-eykZboWmVr6d-116" value="Image Preview" style="html=1;whiteSpace=wrap;fontStyle=1" vertex="1" parent="1">
          <mxGeometry x="-1330" y="1095" width="110" height="50" as="geometry" />
        </mxCell>
        <mxCell id="qB92lxY-eykZboWmVr6d-117" value="Document Properties List" style="html=1;whiteSpace=wrap;fontStyle=1" vertex="1" parent="1">
          <mxGeometry x="-1190" y="1025" width="110" height="50" as="geometry" />
        </mxCell>
        <mxCell id="qB92lxY-eykZboWmVr6d-118" value="Document Card" style="html=1;whiteSpace=wrap;fontStyle=1" vertex="1" parent="1">
          <mxGeometry x="-1330" y="1025" width="110" height="50" as="geometry" />
        </mxCell>
        <mxCell id="qB92lxY-eykZboWmVr6d-119" value="&lt;b&gt;&lt;font style=&quot;font-size: 16px;&quot;&gt;nodes&lt;/font&gt;&lt;/b&gt;" style="shape=umlFrame;whiteSpace=wrap;html=1;pointerEvents=0;width=80;height=30;" vertex="1" parent="1">
          <mxGeometry x="-1390" y="560" width="370" height="774" as="geometry" />
        </mxCell>
        <mxCell id="qB92lxY-eykZboWmVr6d-120" value="&lt;b&gt;&lt;font style=&quot;font-size: 16px;&quot;&gt;tasks&lt;/font&gt;&lt;/b&gt;" style="shape=umlFrame;whiteSpace=wrap;html=1;pointerEvents=0;width=70;height=20;" vertex="1" parent="1">
          <mxGeometry x="-1390" y="320" width="370" height="200" as="geometry" />
        </mxCell>
        <mxCell id="qB92lxY-eykZboWmVr6d-121" value="«interface»&lt;br&gt;&lt;b&gt;Task Callback&lt;/b&gt;" style="html=1;whiteSpace=wrap;" vertex="1" parent="1">
          <mxGeometry x="-1260" y="350" width="110" height="50" as="geometry" />
        </mxCell>
        <mxCell id="qB92lxY-eykZboWmVr6d-122" value="Delete Task" style="html=1;whiteSpace=wrap;" vertex="1" parent="1">
          <mxGeometry x="-1380" y="430" width="110" height="50" as="geometry" />
        </mxCell>
        <mxCell id="qB92lxY-eykZboWmVr6d-126" style="edgeStyle=orthogonalEdgeStyle;rounded=0;orthogonalLoop=1;jettySize=auto;html=1;exitX=0.25;exitY=0;exitDx=0;exitDy=0;entryX=0.75;entryY=1;entryDx=0;entryDy=0;dashed=1;" edge="1" parent="1" source="qB92lxY-eykZboWmVr6d-123" target="qB92lxY-eykZboWmVr6d-121">
          <mxGeometry relative="1" as="geometry">
            <Array as="points">
              <mxPoint x="-1113" y="410" />
              <mxPoint x="-1178" y="410" />
            </Array>
          </mxGeometry>
        </mxCell>
        <mxCell id="qB92lxY-eykZboWmVr6d-123" value="Generate Pdf Task" style="html=1;whiteSpace=wrap;" vertex="1" parent="1">
          <mxGeometry x="-1140" y="430" width="110" height="50" as="geometry" />
        </mxCell>
        <mxCell id="qB92lxY-eykZboWmVr6d-125" style="edgeStyle=orthogonalEdgeStyle;rounded=0;orthogonalLoop=1;jettySize=auto;html=1;exitX=0.5;exitY=0;exitDx=0;exitDy=0;entryX=0.5;entryY=1;entryDx=0;entryDy=0;dashed=1;" edge="1" parent="1" source="qB92lxY-eykZboWmVr6d-124" target="qB92lxY-eykZboWmVr6d-121">
          <mxGeometry relative="1" as="geometry" />
        </mxCell>
        <mxCell id="qB92lxY-eykZboWmVr6d-124" value="Save Task" style="html=1;whiteSpace=wrap;" vertex="1" parent="1">
          <mxGeometry x="-1260" y="430" width="110" height="50" as="geometry" />
        </mxCell>
        <mxCell id="qB92lxY-eykZboWmVr6d-209" style="edgeStyle=orthogonalEdgeStyle;rounded=0;orthogonalLoop=1;jettySize=auto;html=1;" edge="1" parent="1" source="qB92lxY-eykZboWmVr6d-131" target="qB92lxY-eykZboWmVr6d-207">
          <mxGeometry relative="1" as="geometry" />
        </mxCell>
        <mxCell id="qB92lxY-eykZboWmVr6d-214" style="edgeStyle=orthogonalEdgeStyle;rounded=0;orthogonalLoop=1;jettySize=auto;html=1;exitX=0;exitY=0;exitDx=0;exitDy=210;exitPerimeter=0;entryX=0;entryY=0;entryDx=370;entryDy=156.25;entryPerimeter=0;" edge="1" parent="1" source="qB92lxY-eykZboWmVr6d-131" target="qB92lxY-eykZboWmVr6d-149">
          <mxGeometry relative="1" as="geometry">
            <Array as="points">
              <mxPoint x="-970" y="1310" />
              <mxPoint x="-970" y="1516" />
            </Array>
          </mxGeometry>
        </mxCell>
        <mxCell id="qB92lxY-eykZboWmVr6d-131" value="" style="shape=folder;fontStyle=1;spacingTop=10;tabWidth=50;tabHeight=30;tabPosition=left;html=1;whiteSpace=wrap;" vertex="1" parent="1">
          <mxGeometry x="-946" y="1100" width="1286" height="270" as="geometry" />
        </mxCell>
        <mxCell id="qB92lxY-eykZboWmVr6d-132" value="&lt;span style=&quot;&quot;&gt;&lt;font style=&quot;font-size: 18px;&quot;&gt;bll&lt;/font&gt;&lt;/span&gt;" style="text;align=center;fontStyle=1;verticalAlign=middle;spacingLeft=3;spacingRight=3;strokeColor=none;rotatable=1;points=[[0,0.5],[1,0.5]];portConstraint=eastwest;html=1;fontSize=16;movable=1;resizable=1;deletable=1;editable=1;locked=0;connectable=1;container=0;" vertex="1" parent="1">
          <mxGeometry x="-950" y="1102" width="60" height="26" as="geometry" />
        </mxCell>
        <mxCell id="qB92lxY-eykZboWmVr6d-137" value="&lt;p style=&quot;margin:0px;margin-top:4px;text-align:center;text-decoration:underline;&quot;&gt;&lt;b&gt;Drawing Classes:&lt;/b&gt;&lt;/p&gt;&lt;hr&gt;&lt;p style=&quot;margin:0px;margin-left:8px;&quot;&gt;Cable&lt;/p&gt;&lt;p style=&quot;margin:0px;margin-left:8px;&quot;&gt;CanvasPane&lt;/p&gt;&lt;p style=&quot;margin:0px;margin-left:8px;&quot;&gt;Circle&lt;/p&gt;&lt;p style=&quot;margin:0px;margin-left:8px;&quot;&gt;Drawing Tool&lt;/p&gt;&lt;p style=&quot;margin:0px;margin-left:8px;&quot;&gt;Icon&lt;/p&gt;&lt;p style=&quot;margin:0px;margin-left:8px;&quot;&gt;Line&lt;/p&gt;&lt;p style=&quot;margin:0px;margin-left:8px;&quot;&gt;MyToolBar&lt;/p&gt;&lt;p style=&quot;margin:0px;margin-left:8px;&quot;&gt;Oval&lt;/p&gt;&lt;p style=&quot;margin:0px;margin-left:8px;&quot;&gt;Rectangle&lt;/p&gt;&lt;p style=&quot;margin:0px;margin-left:8px;&quot;&gt;Selection Tool&lt;/p&gt;&lt;p style=&quot;margin:0px;margin-left:8px;&quot;&gt;Square&lt;/p&gt;&lt;p style=&quot;margin:0px;margin-left:8px;&quot;&gt;Tool&lt;/p&gt;&lt;p style=&quot;margin:0px;margin-left:8px;&quot;&gt;«interface» EventResponsible&lt;br style=&quot;border-color: var(--border-color); text-align: center;&quot;&gt;&lt;/p&gt;&lt;p style=&quot;margin:0px;margin-left:8px;&quot;&gt;«abstract» MyShape&lt;br style=&quot;border-color: var(--border-color); text-align: center;&quot;&gt;&lt;/p&gt;" style="verticalAlign=top;align=left;overflow=fill;fontSize=12;fontFamily=Helvetica;html=1;whiteSpace=wrap;" vertex="1" parent="1">
          <mxGeometry x="442.5" y="344" width="170" height="240" as="geometry" />
        </mxCell>
        <mxCell id="qB92lxY-eykZboWmVr6d-138" value="Image Byte Converter" style="html=1;whiteSpace=wrap;fontStyle=1" vertex="1" parent="1">
          <mxGeometry x="537.5" y="667.5" width="110" height="50" as="geometry" />
        </mxCell>
        <mxCell id="qB92lxY-eykZboWmVr6d-139" value="Scene Manager" style="html=1;whiteSpace=wrap;fontStyle=1" vertex="1" parent="1">
          <mxGeometry x="537.5" y="727.5" width="110" height="50" as="geometry" />
        </mxCell>
        <mxCell id="qB92lxY-eykZboWmVr6d-140" value="Image Cropper" style="html=1;whiteSpace=wrap;fontStyle=1" vertex="1" parent="1">
          <mxGeometry x="407.5" y="727.5" width="110" height="50" as="geometry" />
        </mxCell>
        <mxCell id="qB92lxY-eykZboWmVr6d-141" value="Icon Factory" style="html=1;whiteSpace=wrap;fontStyle=1" vertex="1" parent="1">
          <mxGeometry x="407.5" y="667.5" width="110" height="50" as="geometry" />
        </mxCell>
        <mxCell id="qB92lxY-eykZboWmVr6d-142" value="Dialog Manager" style="html=1;whiteSpace=wrap;fontStyle=1" vertex="1" parent="1">
          <mxGeometry x="537.5" y="602.5" width="110" height="50" as="geometry" />
        </mxCell>
        <mxCell id="qB92lxY-eykZboWmVr6d-143" value="Crop Image To Circle" style="html=1;whiteSpace=wrap;fontStyle=1" vertex="1" parent="1">
          <mxGeometry x="407.5" y="602.5" width="110" height="50" as="geometry" />
        </mxCell>
        <mxCell id="qB92lxY-eykZboWmVr6d-146" value="" style="html=1;verticalAlign=bottom;endArrow=block;edgeStyle=elbowEdgeStyle;elbow=vertical;curved=0;rounded=0;" edge="1" parent="1">
          <mxGeometry width="80" relative="1" as="geometry">
            <mxPoint x="-930" y="420" as="sourcePoint" />
            <mxPoint x="-1020" y="420" as="targetPoint" />
          </mxGeometry>
        </mxCell>
        <mxCell id="qB92lxY-eykZboWmVr6d-149" value="" style="shape=folder;fontStyle=1;spacingTop=10;tabWidth=50;tabHeight=25;tabPosition=left;html=1;whiteSpace=wrap;movable=1;resizable=1;rotatable=1;deletable=1;editable=1;locked=0;connectable=1;container=0;" vertex="1" parent="1">
          <mxGeometry x="-1390" y="1360" width="370" height="550" as="geometry" />
        </mxCell>
        <mxCell id="qB92lxY-eykZboWmVr6d-150" value="&lt;span style=&quot;font-size: 18px;&quot;&gt;utils&lt;/span&gt;" style="text;align=center;fontStyle=1;verticalAlign=middle;spacingLeft=3;spacingRight=3;strokeColor=none;rotatable=1;points=[[0,0.5],[1,0.5]];portConstraint=eastwest;html=1;fontSize=16;movable=1;resizable=1;deletable=1;editable=1;locked=0;connectable=1;container=0;" vertex="1" parent="1">
          <mxGeometry x="-1390" y="1360" width="50" height="26" as="geometry" />
        </mxCell>
        <mxCell id="qB92lxY-eykZboWmVr6d-151" value="&lt;p style=&quot;margin:0px;margin-top:4px;text-align:center;text-decoration:underline;&quot;&gt;&lt;b&gt;enums:&lt;/b&gt;&lt;/p&gt;&lt;hr&gt;&lt;p style=&quot;margin:0px;margin-left:8px;&quot;&gt;BusinessEntityType&lt;/p&gt;&lt;p style=&quot;margin:0px;margin-left:8px;&quot;&gt;CustomerType&lt;/p&gt;&lt;p style=&quot;margin:0px;margin-left:8px;&quot;&gt;DocumentFilter&lt;/p&gt;&lt;p style=&quot;margin:0px;margin-left:8px;&quot;&gt;DocumentPropertyType&lt;/p&gt;&lt;p style=&quot;margin:0px;margin-left:8px;&quot;&gt;EditingOptions&lt;/p&gt;&lt;p style=&quot;margin:0px;margin-left:8px;&quot;&gt;NodeType&lt;/p&gt;&lt;p style=&quot;margin:0px;margin-left:8px;&quot;&gt;ResultState&lt;/p&gt;&lt;p style=&quot;margin:0px;margin-left:8px;&quot;&gt;UserRole&lt;/p&gt;" style="verticalAlign=top;align=left;overflow=fill;fontSize=12;fontFamily=Helvetica;html=1;whiteSpace=wrap;" vertex="1" parent="1">
          <mxGeometry x="-1295" y="1405" width="170" height="155" as="geometry" />
        </mxCell>
        <mxCell id="qB92lxY-eykZboWmVr6d-159" value="&lt;b&gt;&lt;font style=&quot;font-size: 16px;&quot;&gt;permissions&lt;/font&gt;&lt;/b&gt;" style="shape=umlFrame;whiteSpace=wrap;html=1;pointerEvents=0;width=130;height=20;" vertex="1" parent="1">
          <mxGeometry x="-1350" y="1590" width="290" height="110" as="geometry" />
        </mxCell>
        <mxCell id="qB92lxY-eykZboWmVr6d-160" value="&lt;b&gt;AccessChecker&lt;/b&gt;" style="html=1;whiteSpace=wrap;" vertex="1" parent="1">
          <mxGeometry x="-1330" y="1630" width="110" height="50" as="geometry" />
        </mxCell>
        <mxCell id="qB92lxY-eykZboWmVr6d-164" value="Extends" style="endArrow=block;endSize=16;endFill=0;html=1;rounded=0;exitX=0.75;exitY=0;exitDx=0;exitDy=0;entryX=0.25;entryY=1;entryDx=0;entryDy=0;" edge="1" parent="1" source="qB92lxY-eykZboWmVr6d-27" target="qB92lxY-eykZboWmVr6d-29">
          <mxGeometry width="160" relative="1" as="geometry">
            <mxPoint x="-640" y="794.05" as="sourcePoint" />
            <mxPoint x="-480" y="794.05" as="targetPoint" />
          </mxGeometry>
        </mxCell>
        <mxCell id="qB92lxY-eykZboWmVr6d-165" value="Extends" style="endArrow=block;endSize=16;endFill=0;html=1;rounded=0;exitX=0.5;exitY=0;exitDx=0;exitDy=0;entryX=0.75;entryY=1;entryDx=0;entryDy=0;" edge="1" parent="1" source="qB92lxY-eykZboWmVr6d-26" target="qB92lxY-eykZboWmVr6d-29">
          <mxGeometry width="160" relative="1" as="geometry">
            <mxPoint x="-417" y="560" as="sourcePoint" />
            <mxPoint x="-412" y="520" as="targetPoint" />
            <Array as="points">
              <mxPoint x="-340" y="540" />
            </Array>
          </mxGeometry>
        </mxCell>
        <mxCell id="qB92lxY-eykZboWmVr6d-166" value="Extends" style="endArrow=block;endSize=16;endFill=0;html=1;rounded=0;exitX=0.25;exitY=1;exitDx=0;exitDy=0;entryX=1;entryY=0.5;entryDx=0;entryDy=0;" edge="1" parent="1" source="qB92lxY-eykZboWmVr6d-34" target="qB92lxY-eykZboWmVr6d-33">
          <mxGeometry width="160" relative="1" as="geometry">
            <mxPoint x="-760" y="820" as="sourcePoint" />
            <mxPoint x="-600" y="820" as="targetPoint" />
          </mxGeometry>
        </mxCell>
        <mxCell id="qB92lxY-eykZboWmVr6d-167" value="Extends" style="endArrow=block;endSize=16;endFill=0;html=1;rounded=0;exitX=0.25;exitY=1;exitDx=0;exitDy=0;" edge="1" parent="1" source="qB92lxY-eykZboWmVr6d-35" target="qB92lxY-eykZboWmVr6d-33">
          <mxGeometry width="160" relative="1" as="geometry">
            <mxPoint x="-760" y="864.05" as="sourcePoint" />
            <mxPoint x="-600" y="864.05" as="targetPoint" />
          </mxGeometry>
        </mxCell>
        <mxCell id="qB92lxY-eykZboWmVr6d-168" value="Extends" style="endArrow=block;endSize=16;endFill=0;html=1;rounded=0;exitX=0.5;exitY=1;exitDx=0;exitDy=0;entryX=0;entryY=0.5;entryDx=0;entryDy=0;" edge="1" parent="1" source="qB92lxY-eykZboWmVr6d-36" target="qB92lxY-eykZboWmVr6d-33">
          <mxGeometry width="160" relative="1" as="geometry">
            <mxPoint x="-760" y="890" as="sourcePoint" />
            <mxPoint x="-600" y="890" as="targetPoint" />
          </mxGeometry>
        </mxCell>
        <mxCell id="qB92lxY-eykZboWmVr6d-169" value="@Annotation&lt;br&gt;&lt;b&gt;Requires Permission&lt;/b&gt;" style="html=1;whiteSpace=wrap;" vertex="1" parent="1">
          <mxGeometry x="-1200" y="1630" width="110" height="50" as="geometry" />
        </mxCell>
        <mxCell id="qB92lxY-eykZboWmVr6d-170" value="" style="endArrow=open;startArrow=circlePlus;endFill=0;startFill=0;endSize=8;html=1;rounded=0;entryX=0;entryY=0.5;entryDx=0;entryDy=0;" edge="1" parent="1" target="qB92lxY-eykZboWmVr6d-171">
          <mxGeometry width="160" relative="1" as="geometry">
            <mxPoint x="-1240" y="1754.41" as="sourcePoint" />
            <mxPoint x="-1080" y="1754.41" as="targetPoint" />
          </mxGeometry>
        </mxCell>
        <mxCell id="qB92lxY-eykZboWmVr6d-171" value="startup" style="html=1;whiteSpace=wrap;fontStyle=1" vertex="1" parent="1">
          <mxGeometry x="-1170" y="1730" width="110" height="50" as="geometry" />
        </mxCell>
        <mxCell id="qB92lxY-eykZboWmVr6d-172" value="Blob Service" style="html=1;whiteSpace=wrap;fontStyle=1" vertex="1" parent="1">
          <mxGeometry x="-1350" y="1730" width="110" height="50" as="geometry" />
        </mxCell>
        <mxCell id="qB92lxY-eykZboWmVr6d-173" value="Thread Pool" style="html=1;whiteSpace=wrap;fontStyle=1" vertex="1" parent="1">
          <mxGeometry x="-1170" y="1820" width="110" height="50" as="geometry" />
        </mxCell>
        <mxCell id="qB92lxY-eykZboWmVr6d-174" value="Hash Password Helper" style="html=1;whiteSpace=wrap;fontStyle=1" vertex="1" parent="1">
          <mxGeometry x="-1350" y="1820" width="110" height="50" as="geometry" />
        </mxCell>
        <mxCell id="qB92lxY-eykZboWmVr6d-208" style="edgeStyle=orthogonalEdgeStyle;rounded=0;orthogonalLoop=1;jettySize=auto;html=1;entryX=0;entryY=0.723;entryDx=0;entryDy=0;entryPerimeter=0;" edge="1" parent="1" source="qB92lxY-eykZboWmVr6d-175" target="qB92lxY-eykZboWmVr6d-207">
          <mxGeometry relative="1" as="geometry" />
        </mxCell>
        <mxCell id="qB92lxY-eykZboWmVr6d-215" style="edgeStyle=orthogonalEdgeStyle;rounded=0;orthogonalLoop=1;jettySize=auto;html=1;exitX=0;exitY=0;exitDx=0;exitDy=145;exitPerimeter=0;entryX=0.995;entryY=0.41;entryDx=0;entryDy=0;entryPerimeter=0;" edge="1" parent="1" source="qB92lxY-eykZboWmVr6d-175" target="qB92lxY-eykZboWmVr6d-149">
          <mxGeometry relative="1" as="geometry">
            <mxPoint x="-1030" y="1520" as="targetPoint" />
          </mxGeometry>
        </mxCell>
        <mxCell id="qB92lxY-eykZboWmVr6d-175" value="" style="shape=folder;fontStyle=1;spacingTop=10;tabWidth=50;tabHeight=30;tabPosition=left;html=1;whiteSpace=wrap;" vertex="1" parent="1">
          <mxGeometry x="-950" y="1430" width="1290" height="270" as="geometry" />
        </mxCell>
        <mxCell id="qB92lxY-eykZboWmVr6d-176" value="&lt;span style=&quot;&quot;&gt;&lt;font style=&quot;font-size: 18px;&quot;&gt;dal&lt;/font&gt;&lt;/span&gt;" style="text;align=center;fontStyle=1;verticalAlign=middle;spacingLeft=3;spacingRight=3;strokeColor=none;rotatable=1;points=[[0,0.5],[1,0.5]];portConstraint=eastwest;html=1;fontSize=16;movable=1;resizable=1;deletable=1;editable=1;locked=0;connectable=1;container=0;" vertex="1" parent="1">
          <mxGeometry x="-950" y="1430" width="50" height="26" as="geometry" />
        </mxCell>
        <mxCell id="qB92lxY-eykZboWmVr6d-177" value="" style="shape=datastore;whiteSpace=wrap;html=1;" vertex="1" parent="1">
          <mxGeometry x="-591.5" y="1780" width="590" height="150" as="geometry" />
        </mxCell>
        <mxCell id="qB92lxY-eykZboWmVr6d-189" style="edgeStyle=orthogonalEdgeStyle;rounded=0;orthogonalLoop=1;jettySize=auto;html=1;exitX=0.5;exitY=0;exitDx=0;exitDy=0;entryX=0.5;entryY=1;entryDx=0;entryDy=0;dashed=1;" edge="1" parent="1" source="qB92lxY-eykZboWmVr6d-178" target="qB92lxY-eykZboWmVr6d-188">
          <mxGeometry relative="1" as="geometry" />
        </mxCell>
        <mxCell id="qB92lxY-eykZboWmVr6d-178" value="Customer Manager" style="html=1;whiteSpace=wrap;fontStyle=1" vertex="1" parent="1">
          <mxGeometry x="-820" y="1280" width="110" height="50" as="geometry" />
        </mxCell>
        <mxCell id="qB92lxY-eykZboWmVr6d-191" style="edgeStyle=orthogonalEdgeStyle;rounded=0;orthogonalLoop=1;jettySize=auto;html=1;entryX=0.5;entryY=1;entryDx=0;entryDy=0;dashed=1;" edge="1" parent="1" source="qB92lxY-eykZboWmVr6d-179" target="qB92lxY-eykZboWmVr6d-188">
          <mxGeometry relative="1" as="geometry" />
        </mxCell>
        <mxCell id="qB92lxY-eykZboWmVr6d-179" value="Document Manager" style="html=1;whiteSpace=wrap;fontStyle=1" vertex="1" parent="1">
          <mxGeometry x="-660" y="1280" width="110" height="50" as="geometry" />
        </mxCell>
        <mxCell id="qB92lxY-eykZboWmVr6d-192" style="edgeStyle=orthogonalEdgeStyle;rounded=0;orthogonalLoop=1;jettySize=auto;html=1;exitX=0.5;exitY=0;exitDx=0;exitDy=0;entryX=0.5;entryY=1;entryDx=0;entryDy=0;dashed=1;" edge="1" parent="1" source="qB92lxY-eykZboWmVr6d-180" target="qB92lxY-eykZboWmVr6d-188">
          <mxGeometry relative="1" as="geometry" />
        </mxCell>
        <mxCell id="qB92lxY-eykZboWmVr6d-180" value="User Manager" style="html=1;whiteSpace=wrap;fontStyle=1" vertex="1" parent="1">
          <mxGeometry x="-500" y="1280" width="110" height="50" as="geometry" />
        </mxCell>
        <mxCell id="qB92lxY-eykZboWmVr6d-182" value="Manager Factory" style="html=1;whiteSpace=wrap;fontStyle=1" vertex="1" parent="1">
          <mxGeometry x="-523" y="1190" width="110" height="50" as="geometry" />
        </mxCell>
        <mxCell id="qB92lxY-eykZboWmVr6d-185" value="Pdf Document Wrapper" style="html=1;whiteSpace=wrap;fontStyle=1" vertex="1" parent="1">
          <mxGeometry x="170" y="1240" width="110" height="50" as="geometry" />
        </mxCell>
        <mxCell id="qB92lxY-eykZboWmVr6d-186" value="Pdf Page Event Handler" style="html=1;whiteSpace=wrap;fontStyle=1" vertex="1" parent="1">
          <mxGeometry x="-170" y="1240" width="110" height="50" as="geometry" />
        </mxCell>
        <mxCell id="qB92lxY-eykZboWmVr6d-200" style="edgeStyle=orthogonalEdgeStyle;rounded=0;orthogonalLoop=1;jettySize=auto;html=1;entryX=1;entryY=0.5;entryDx=0;entryDy=0;" edge="1" parent="1" source="qB92lxY-eykZboWmVr6d-187" target="qB92lxY-eykZboWmVr6d-186">
          <mxGeometry relative="1" as="geometry" />
        </mxCell>
        <mxCell id="qB92lxY-eykZboWmVr6d-201" style="edgeStyle=orthogonalEdgeStyle;rounded=0;orthogonalLoop=1;jettySize=auto;html=1;entryX=0;entryY=0.5;entryDx=0;entryDy=0;" edge="1" parent="1" source="qB92lxY-eykZboWmVr6d-187" target="qB92lxY-eykZboWmVr6d-185">
          <mxGeometry relative="1" as="geometry" />
        </mxCell>
        <mxCell id="qB92lxY-eykZboWmVr6d-187" value="Pdf Generator" style="html=1;whiteSpace=wrap;fontStyle=1" vertex="1" parent="1">
          <mxGeometry y="1240" width="110" height="50" as="geometry" />
        </mxCell>
        <mxCell id="qB92lxY-eykZboWmVr6d-188" value="«interface»&lt;br&gt;&lt;b&gt;IManager&lt;/b&gt;" style="html=1;whiteSpace=wrap;" vertex="1" parent="1">
          <mxGeometry x="-740" y="1190" width="110" height="50" as="geometry" />
        </mxCell>
        <mxCell id="qB92lxY-eykZboWmVr6d-198" value="Database:&amp;nbsp;CSe22B_WUAV_Wilhelm" style="text;align=center;fontStyle=1;verticalAlign=middle;spacingLeft=3;spacingRight=3;strokeColor=none;rotatable=0;points=[[0,0.5],[1,0.5]];portConstraint=eastwest;html=1;fontSize=16;" vertex="1" parent="1">
          <mxGeometry x="-382.5" y="1844" width="175" height="26" as="geometry" />
        </mxCell>
        <mxCell id="qB92lxY-eykZboWmVr6d-204" value="return" style="html=1;verticalAlign=bottom;endArrow=open;dashed=1;endSize=8;edgeStyle=elbowEdgeStyle;elbow=vertical;curved=0;rounded=0;exitX=0.635;exitY=0.112;exitDx=0;exitDy=0;exitPerimeter=0;entryX=0.73;entryY=1.012;entryDx=0;entryDy=0;entryPerimeter=0;" edge="1" parent="1" source="qB92lxY-eykZboWmVr6d-131" target="qB92lxY-eykZboWmVr6d-73">
          <mxGeometry relative="1" as="geometry">
            <mxPoint x="-250" y="1090" as="sourcePoint" />
            <mxPoint x="-330" y="1090" as="targetPoint" />
          </mxGeometry>
        </mxCell>
        <mxCell id="qB92lxY-eykZboWmVr6d-205" value="&lt;b&gt;&lt;font style=&quot;font-size: 16px;&quot;&gt;util&lt;/font&gt;&lt;/b&gt;" style="shape=umlFrame;whiteSpace=wrap;html=1;pointerEvents=0;width=70;height=20;" vertex="1" parent="1">
          <mxGeometry x="395" y="310" width="265" height="480" as="geometry" />
        </mxCell>
        <mxCell id="qB92lxY-eykZboWmVr6d-207" value="&lt;b&gt;&lt;font style=&quot;font-size: 16px;&quot;&gt;be&lt;/font&gt;&lt;/b&gt;" style="shape=umlFrame;whiteSpace=wrap;html=1;pointerEvents=0;width=70;height=20;" vertex="1" parent="1">
          <mxGeometry x="390" y="840" width="270" height="940" as="geometry" />
        </mxCell>
        <mxCell id="qB92lxY-eykZboWmVr6d-240" style="edgeStyle=orthogonalEdgeStyle;rounded=0;orthogonalLoop=1;jettySize=auto;html=1;exitX=-0.006;exitY=0.599;exitDx=0;exitDy=0;entryX=0.5;entryY=0;entryDx=0;entryDy=0;exitPerimeter=0;dashed=1;" edge="1" parent="1" source="qB92lxY-eykZboWmVr6d-233" target="qB92lxY-eykZboWmVr6d-227">
          <mxGeometry relative="1" as="geometry" />
        </mxCell>
        <mxCell id="qB92lxY-eykZboWmVr6d-221" value="Customer DAO" style="html=1;whiteSpace=wrap;fontStyle=1" vertex="1" parent="1">
          <mxGeometry x="-510" y="1490" width="110" height="50" as="geometry" />
        </mxCell>
        <mxCell id="qB92lxY-eykZboWmVr6d-222" value="User DAO" style="html=1;whiteSpace=wrap;fontStyle=1" vertex="1" parent="1">
          <mxGeometry x="-350" y="1490" width="110" height="50" as="geometry" />
        </mxCell>
        <mxCell id="qB92lxY-eykZboWmVr6d-243" style="edgeStyle=orthogonalEdgeStyle;rounded=0;orthogonalLoop=1;jettySize=auto;html=1;entryX=0;entryY=0.5;entryDx=0;entryDy=0;" edge="1" parent="1" source="qB92lxY-eykZboWmVr6d-223" target="qB92lxY-eykZboWmVr6d-224">
          <mxGeometry relative="1" as="geometry" />
        </mxCell>
        <mxCell id="qB92lxY-eykZboWmVr6d-223" value="Document DAO" style="html=1;whiteSpace=wrap;fontStyle=1" vertex="1" parent="1">
          <mxGeometry x="-200" y="1490" width="110" height="50" as="geometry" />
        </mxCell>
        <mxCell id="qB92lxY-eykZboWmVr6d-224" value="Document Image Factory" style="html=1;whiteSpace=wrap;fontStyle=1" vertex="1" parent="1">
          <mxGeometry x="50" y="1600" width="110" height="50" as="geometry" />
        </mxCell>
        <mxCell id="qB92lxY-eykZboWmVr6d-225" value="DAO Factory" style="html=1;whiteSpace=wrap;fontStyle=1" vertex="1" parent="1">
          <mxGeometry x="50" y="1520" width="110" height="50" as="geometry" />
        </mxCell>
        <mxCell id="qB92lxY-eykZboWmVr6d-226" value="«abstract»&lt;br&gt;&lt;b&gt;DAO&lt;/b&gt;" style="html=1;whiteSpace=wrap;" vertex="1" parent="1">
          <mxGeometry x="-610" y="1590" width="110" height="50" as="geometry" />
        </mxCell>
        <mxCell id="qB92lxY-eykZboWmVr6d-227" value="«interface»&lt;br&gt;&lt;b&gt;IDAO&lt;/b&gt;" style="html=1;whiteSpace=wrap;" vertex="1" parent="1">
          <mxGeometry x="-770" y="1590" width="110" height="50" as="geometry" />
        </mxCell>
        <mxCell id="qB92lxY-eykZboWmVr6d-244" style="edgeStyle=orthogonalEdgeStyle;rounded=0;orthogonalLoop=1;jettySize=auto;html=1;entryX=0.5;entryY=0;entryDx=0;entryDy=0;" edge="1" parent="1" source="qB92lxY-eykZboWmVr6d-228" target="qB92lxY-eykZboWmVr6d-177">
          <mxGeometry relative="1" as="geometry" />
        </mxCell>
        <mxCell id="qB92lxY-eykZboWmVr6d-228" value="DB Connection" style="html=1;whiteSpace=wrap;fontStyle=1" vertex="1" parent="1">
          <mxGeometry x="-351.5" y="1610" width="110" height="50" as="geometry" />
        </mxCell>
        <mxCell id="qB92lxY-eykZboWmVr6d-234" style="edgeStyle=orthogonalEdgeStyle;rounded=0;orthogonalLoop=1;jettySize=auto;html=1;" edge="1" parent="1" source="qB92lxY-eykZboWmVr6d-233" target="qB92lxY-eykZboWmVr6d-228">
          <mxGeometry relative="1" as="geometry" />
        </mxCell>
        <mxCell id="qB92lxY-eykZboWmVr6d-233" value="" style="shape=umlFrame;whiteSpace=wrap;html=1;pointerEvents=0;width=10;height=15;" vertex="1" parent="1">
          <mxGeometry x="-523" y="1475" width="453" height="85" as="geometry" />
        </mxCell>
        <mxCell id="qB92lxY-eykZboWmVr6d-238" value="Extends" style="endArrow=block;endSize=16;endFill=0;html=1;rounded=0;exitX=0.227;exitY=1.059;exitDx=0;exitDy=0;exitPerimeter=0;entryX=1;entryY=0.5;entryDx=0;entryDy=0;" edge="1" parent="1" source="qB92lxY-eykZboWmVr6d-233" target="qB92lxY-eykZboWmVr6d-226">
          <mxGeometry width="160" relative="1" as="geometry">
            <mxPoint x="-500" y="1620" as="sourcePoint" />
            <mxPoint x="-340" y="1620" as="targetPoint" />
          </mxGeometry>
        </mxCell>
        <mxCell id="qB92lxY-eykZboWmVr6d-241" style="edgeStyle=orthogonalEdgeStyle;rounded=0;orthogonalLoop=1;jettySize=auto;html=1;" edge="1" parent="1">
          <mxGeometry relative="1" as="geometry">
            <mxPoint x="-251.54000000000002" y="1370" as="sourcePoint" />
            <mxPoint x="-251.54000000000002" y="1460" as="targetPoint" />
            <Array as="points">
              <mxPoint x="-251.54000000000002" y="1385" />
              <mxPoint x="-251.54000000000002" y="1385" />
            </Array>
          </mxGeometry>
        </mxCell>
      </root>
    </mxGraphModel>
  </diagram>
</mxfile>
